<mxfile host="app.diagrams.net" modified="2023-06-15T17:55:46.970Z" agent="Mozilla/5.0 (Windows NT 10.0; Win64; x64; rv:109.0) Gecko/20100101 Firefox/114.0" etag="2AegVVupbKoNGrdYsJtS" version="21.4.0" type="github">
  <diagram name="Page-1" id="74e2e168-ea6b-b213-b513-2b3c1d86103e">
    <mxGraphModel dx="880" dy="442" grid="1" gridSize="10" guides="1" tooltips="1" connect="1" arrows="1" fold="1" page="1" pageScale="1" pageWidth="1100" pageHeight="850" background="none" math="0" shadow="0">
      <root>
        <mxCell id="0" />
        <mxCell id="1" parent="0" />
        <mxCell id="QuAt87sF5W-baBg7756T-8" value="" style="edgeStyle=orthogonalEdgeStyle;rounded=0;orthogonalLoop=1;jettySize=auto;html=1;" edge="1" parent="1" source="QuAt87sF5W-baBg7756T-1" target="QuAt87sF5W-baBg7756T-3">
          <mxGeometry relative="1" as="geometry" />
        </mxCell>
        <mxCell id="QuAt87sF5W-baBg7756T-1" value="Inicio" style="rounded=1;whiteSpace=wrap;html=1;fontSize=20;" vertex="1" parent="1">
          <mxGeometry x="440" y="110" width="120" height="60" as="geometry" />
        </mxCell>
        <mxCell id="QuAt87sF5W-baBg7756T-33" value="" style="edgeStyle=orthogonalEdgeStyle;rounded=0;orthogonalLoop=1;jettySize=auto;html=1;" edge="1" parent="1" source="QuAt87sF5W-baBg7756T-3" target="QuAt87sF5W-baBg7756T-10">
          <mxGeometry relative="1" as="geometry" />
        </mxCell>
        <mxCell id="QuAt87sF5W-baBg7756T-3" value="&lt;font style=&quot;font-size: 14px;&quot;&gt;Recebe duas &lt;font style=&quot;font-size: 14px;&quot;&gt;entradas: user e repos&lt;/font&gt;&lt;font style=&quot;font-size: 14px;&quot;&gt;&lt;br&gt;&lt;/font&gt;&lt;/font&gt;" style="shape=parallelogram;perimeter=parallelogramPerimeter;whiteSpace=wrap;html=1;fixedSize=1;fontSize=20;" vertex="1" parent="1">
          <mxGeometry x="427.5" y="210" width="145" height="70" as="geometry" />
        </mxCell>
        <mxCell id="QuAt87sF5W-baBg7756T-13" value="" style="edgeStyle=orthogonalEdgeStyle;rounded=0;orthogonalLoop=1;jettySize=auto;html=1;" edge="1" parent="1" source="QuAt87sF5W-baBg7756T-10" target="QuAt87sF5W-baBg7756T-12">
          <mxGeometry relative="1" as="geometry" />
        </mxCell>
        <mxCell id="QuAt87sF5W-baBg7756T-10" value="&lt;div style=&quot;font-size: 16px;&quot;&gt;Busca dados &lt;br style=&quot;font-size: 16px;&quot;&gt;&lt;/div&gt;no repositório" style="whiteSpace=wrap;html=1;fontSize=16;" vertex="1" parent="1">
          <mxGeometry x="440" y="340" width="120" height="60" as="geometry" />
        </mxCell>
        <mxCell id="QuAt87sF5W-baBg7756T-15" value="" style="edgeStyle=orthogonalEdgeStyle;rounded=0;orthogonalLoop=1;jettySize=auto;html=1;" edge="1" parent="1" source="QuAt87sF5W-baBg7756T-12" target="QuAt87sF5W-baBg7756T-14">
          <mxGeometry relative="1" as="geometry" />
        </mxCell>
        <mxCell id="QuAt87sF5W-baBg7756T-18" value="" style="edgeStyle=orthogonalEdgeStyle;rounded=0;orthogonalLoop=1;jettySize=auto;html=1;" edge="1" parent="1" source="QuAt87sF5W-baBg7756T-12" target="QuAt87sF5W-baBg7756T-17">
          <mxGeometry relative="1" as="geometry" />
        </mxCell>
        <mxCell id="QuAt87sF5W-baBg7756T-12" value="Busca teve sucesso?" style="rhombus;whiteSpace=wrap;html=1;fontSize=14;" vertex="1" parent="1">
          <mxGeometry x="447.5" y="440" width="105" height="100" as="geometry" />
        </mxCell>
        <mxCell id="QuAt87sF5W-baBg7756T-27" style="edgeStyle=orthogonalEdgeStyle;rounded=0;orthogonalLoop=1;jettySize=auto;html=1;exitX=0.5;exitY=1;exitDx=0;exitDy=0;entryX=0.5;entryY=0;entryDx=0;entryDy=0;" edge="1" parent="1" source="QuAt87sF5W-baBg7756T-14" target="QuAt87sF5W-baBg7756T-22">
          <mxGeometry relative="1" as="geometry">
            <Array as="points">
              <mxPoint x="303" y="680" />
              <mxPoint x="505" y="680" />
            </Array>
          </mxGeometry>
        </mxCell>
        <mxCell id="QuAt87sF5W-baBg7756T-14" value="Imprime mensagem: &quot;Usuário ou repositorio inválidos. Tente novamente!&quot;" style="whiteSpace=wrap;html=1;fontSize=14;" vertex="1" parent="1">
          <mxGeometry x="230" y="450" width="145" height="80" as="geometry" />
        </mxCell>
        <mxCell id="QuAt87sF5W-baBg7756T-16" value="Não" style="text;html=1;strokeColor=none;fillColor=none;align=center;verticalAlign=middle;whiteSpace=wrap;rounded=0;" vertex="1" parent="1">
          <mxGeometry x="387.5" y="460" width="60" height="30" as="geometry" />
        </mxCell>
        <mxCell id="QuAt87sF5W-baBg7756T-21" value="" style="edgeStyle=orthogonalEdgeStyle;rounded=0;orthogonalLoop=1;jettySize=auto;html=1;" edge="1" parent="1" source="QuAt87sF5W-baBg7756T-17" target="QuAt87sF5W-baBg7756T-20">
          <mxGeometry relative="1" as="geometry" />
        </mxCell>
        <mxCell id="QuAt87sF5W-baBg7756T-17" value="Filtra as informações desejadas" style="whiteSpace=wrap;html=1;fontSize=14;" vertex="1" parent="1">
          <mxGeometry x="625" y="460" width="120" height="60" as="geometry" />
        </mxCell>
        <mxCell id="QuAt87sF5W-baBg7756T-19" value="&lt;div&gt;Sim&lt;/div&gt;" style="text;html=1;strokeColor=none;fillColor=none;align=center;verticalAlign=middle;whiteSpace=wrap;rounded=0;" vertex="1" parent="1">
          <mxGeometry x="560" y="460" width="60" height="30" as="geometry" />
        </mxCell>
        <mxCell id="QuAt87sF5W-baBg7756T-20" value="Envia as informações para o link desejado" style="whiteSpace=wrap;html=1;fontSize=14;" vertex="1" parent="1">
          <mxGeometry x="625" y="570" width="120" height="60" as="geometry" />
        </mxCell>
        <mxCell id="QuAt87sF5W-baBg7756T-22" value="Fim" style="rounded=1;whiteSpace=wrap;html=1;fontSize=20;" vertex="1" parent="1">
          <mxGeometry x="445" y="710" width="120" height="60" as="geometry" />
        </mxCell>
        <mxCell id="QuAt87sF5W-baBg7756T-32" value="" style="endArrow=none;html=1;rounded=0;" edge="1" parent="1">
          <mxGeometry width="50" height="50" relative="1" as="geometry">
            <mxPoint x="500" y="680" as="sourcePoint" />
            <mxPoint x="680" y="630" as="targetPoint" />
            <Array as="points">
              <mxPoint x="650" y="680" />
              <mxPoint x="680" y="680" />
            </Array>
          </mxGeometry>
        </mxCell>
      </root>
    </mxGraphModel>
  </diagram>
</mxfile>
